# xmcd CD database file
#
# Track frame offsets:
#	150
#	20894
#	50661
#	76581
#	109820
#	148273
#	173825
#	196517
#	221022
#	248286
#	273545
#	296161
#	316462
#	335833
#
# Disc length: 4698 seconds
#
# Revision: 1
# Processed by: cddbd v1.4PL0 Copyright (c) Steve Scherf et al.
# Submitted via: CDex 1.40Beta4
#
DISCID=d412580e
DTITLE=Rory Gallagher - Follow Me
DYEAR=1995
DGENRE=Blues
TTITLE0=Wayward Child
TTITLE1=Double Vision
TTITLE2=Big Guns
TTITLE3=What In The World
TTITLE4=Nadine
TTITLE5=Follow Me
TTITLE6=Bad Penny
TTITLE7=Bourbon
TTITLE8=Jinxed
TTITLE9=Moonchild
TTITLE10=Brute Force And Ignorance
TTITLE11=The Devil Made Me Do It
TTITLE12=Skin Kicker
TTITLE13=Peter Gun
EXTD=YEAR: 1995 ID3G:   0
EXTT0=
EXTT1=
EXTT2=
EXTT3=
EXTT4=
EXTT5=
EXTT6=
EXTT7=
EXTT8=
EXTT9=
EXTT10=
EXTT11=
EXTT12=
EXTT13=
PLAYORDER=
